<svg xmlns="http://www.w3.org/2000/svg" viewBox="0 0 428.5 92.3" version="1"><switch transform="matrix(1.17735 0 0 1.17735 -37.998 -8.185)"><g transform="translate(107.27 23.112) scale(.4992)"><path d="M-36-36h500.7v164.4H-36z" fill="#fff"/><circle r="46.1" cy="46.1" cx="46.1" fill="#f5bb60"/><circle r="41.5" cy="41.5" cx="41.5" fill="#e86f32"/><circle r="36" cy="36" cx="47" fill="#e53d42"/><circle r="33.1" cy="38.8" cx="49.9" fill="#bfd141"/><circle r="30.7" cy="41.3" cx="47.5" fill="#6db64c"/><circle r="25.8" cy="36.4" cx="42.6" fill="#afdbe7"/><circle r="21.6" cy="32.2" cx="46.8" fill="#57badf"/><circle r="19" cy="34.8" cx="49.5" fill="#02b2d6"/><radialGradient gradientUnits="userSpaceOnUse" r="16.2" cy="37.6" cx="46.7" id="a"><stop stop-color="#797979" offset="0"/><stop stop-color="#4c4c4c" offset="1"/></radialGradient><circle r="16.2" cy="37.6" cx="46.7" fill="url(#a)"/><circle r="16.2" cy="37.6" cx="46.7" fill="#231f20"/><ellipse ry="5" rx="3.2" cy="31.7" cx="53.2" transform="rotate(24.166 53.207 31.67)" fill="#fff"/><path d="M107 28.5c0-.3.3-.5.7-.5h14.5c8.3 0 12.2 3.8 12.2 9.6 0 4-2 6.4-4.5 7.6 2.3 1 5 3.8 5 8.2 0 7.2-4.8 10.6-13.3 10.6h-14c-.3 0-.6-.2-.6-.5v-35zM122 43c3.4 0 5.6-2 5.6-4.7 0-3-2-4.8-5.6-4.8h-7.8c-.2 0-.3 0-.3.3v9s0 .2.2.2h7.8zm-7.8 15.5h8.2c3.8 0 6-2 6-5s-2.2-5-6-5h-8.2c-.2 0-.3 0-.3.3v9.4c0 .2 0 .3.2.3zm25.6 5.6c-.3 0-.6 0-.6-.4V39c0-.3.2-.5.6-.5h5.3c.4 0 .7.2.7.5v2.2c1.4-2 3.8-3.3 7.3-3.3 2.2 0 4.4.7 5.8 2 .3.3.3.5 0 .7l-3 3.6c0 .3-.4.3-.7 0-1.2-.6-2.5-1-4-1-3.6 0-5.2 2.3-5.2 6.4v14c0 .2-.2.4-.6.4h-5.4zm20-6.4c-.5-1.8-.8-3.5-.8-6.3s.3-4.5 1-6.3c1.5-4.5 5.7-7 11.3-7 5.6 0 9.8 2.5 11.4 7 .6 1.8 1 3.5 1 6.3s-.4 4.5-1 6.3c-1.6 4.5-5.8 7-11.4 7-5.6 0-9.8-2.6-11.4-7zm16.7-1.6c.5-1.3.6-2.5.6-4.7s0-3.3-.5-4.7c-.8-2-2.6-3.3-5.2-3.3s-4.4 1.2-5.2 3.3c-.4 1.4-.5 2.5-.5 4.7s0 3.4.6 4.7c1 2 2.7 3.3 5.3 3.3 2.6 0 4.4-1.2 5.2-3.3zm35 8c-.3 0-.6 0-.7-.4l-5.3-16.4-5.5 16.4c0 .3-.3.5-.7.5h-4.7c-.3 0-.6 0-.7-.4L185 39c0-.3.2-.5.5-.5h5.5c.4 0 .6.2.7.5l5.3 17 5.4-17c0-.3.4-.5.7-.5h4.2c.3 0 .6.2.7.5l5.5 17 5.2-17c0-.4.3-.5.7-.5h5.5c.2 0 .4.2.3.5l-8.7 24.5c0 .3-.3.5-.7.5h-4.5zm15.2-3.4c-.2-.2-.2-.5 0-.7l3.3-3.3c.2-.2.6-.2.8 0 2 1.7 5.2 3 8 3 3.5 0 5.2-1.4 5.2-3s-1-2.6-4.6-3l-3-.2c-5.6-.5-8.5-3.2-8.5-7.5 0-5 3.7-8 10.6-8 4.3 0 8 1.2 10.4 3 .3.2.3.5 0 .7l-2.7 3c-.2.4-.5.4-.8.2-1.7-1.2-4.5-2.2-7.2-2.2-2.8 0-4.2 1-4.2 2.7 0 1.5 1 2.4 4.6 2.7l3 .3c5.8.5 8.6 3.3 8.6 7.5 0 5-4 8.7-11.6 8.7-5.7 0-9.6-2-12-4zm28-3c-.7-1.7-1-3.7-1-6.4s.2-4.7.8-6.3c1.6-4.6 5.8-7.2 11.3-7.2 5.7 0 9.8 2.7 11.4 7 .6 2 1 3.7 1 7.8 0 .3-.3.5-.7.5h-17c-.3 0-.4.2-.4.4 0 .7.3 1.4.5 2 1 2.5 3 4 6.2 4 3 0 5-1.2 6.5-2.5.3-.4.6-.4 1-.2l3.3 2.8c.3.2.3.5 0 .7-2.3 2.5-6.2 4.4-11.3 4.4-6 0-10-2.7-11.6-7.2zM271.2 46c-.7-2-2.8-3.3-5.4-3.3-2.7 0-4.8 1-5.6 3.2-.2.6-.3 1.3-.3 2.2 0 .2.2.3.4.3h11s.2 0 .2-.3c0-1 0-1.6-.3-2.2zm11.6 18c-.4 0-.7-.3-.7-.6V39c0-.3.2-.5.6-.5h5.2c.3 0 .6.2.6.5v2.2c1.4-2 3.8-3.3 7.3-3.3 2.3 0 4.5.7 6 2 .2.3.2.5 0 .7l-3 3.6c-.2.3-.5.3-.8 0-1.3-.6-2.6-1-4-1-3.7 0-5.3 2.3-5.3 6.4v14c0 .2-.3.4-.7.4H283zm20-4.3c-.3-.3-.4-.6-.2-1l3.6-3.7c.2-.3.6-.3.8 0 2.5 1.8 6.3 3.7 10.6 3.7 4.7 0 7.4-2.2 7.4-5.2 0-2.6-1.7-4.3-7-5l-2.2-.3c-7.5-1-11.8-4.3-11.8-10.3 0-6.5 5.2-11 13.2-11 5 0 9.5 1.5 12.6 3.7.3 0 .3.3 0 .6l-2.7 4c-.2.2-.5.2-.8 0-3.2-1.8-6-2.7-9.4-2.7-4 0-6 2-6 4.7 0 2.5 2 4.2 7.2 5l2 .2c7.6 1 11.8 4 11.8 10.4s-5 11.2-14.7 11.2c-5.8 0-11.3-2-14.4-4.7zm41 4.5c-5.7 0-7.8-2.5-7.8-7.5V43.5c0-.2 0-.3-.3-.3h-2c-.3 0-.6-.2-.6-.5V39c0-.2.2-.4.6-.4h1.8c.2 0 .3 0 .3-.3v-7c0-.3.3-.5.7-.5h5.3c.3 0 .6.2.6.5v7c0 .2 0 .3.3.3h3.6c.3 0 .6.2.6.5v3.7c0 .3-.2.5-.6.5H343c-.2 0-.3 0-.3.3v13.3c0 1.8.8 2.4 2.6 2.4h1.4c.3 0 .6.2.6.5V64c0 .3-.2.5-.6.5H344zM368 64c-.3 0-.6 0-.6-.4v-2c-1.4 2-4 3-8 3-5 0-9.2-2.3-9.2-7.7 0-5.7 4.2-8.2 11-8.2h5.7c.3 0 .4 0 .4-.3v-1.2c0-3-1.5-4.2-6-4.2-3.2 0-5 1-6.4 2-.3 0-.6 0-.8-.2l-2-3.5c-.3-.3-.2-.5 0-.7 2.2-1.5 5.3-2.5 9.8-2.5 8.4 0 11.5 2.8 11.5 9v16.7c0 .3-.2.5-.6.5H368zm-.6-8.5v-2c0-.2 0-.3-.3-.3h-4.6c-4 0-6 1-6 3.5 0 2 1.7 3.2 4.8 3.2 4-.2 6-1.6 6-4.5zm11 2c-.5-1.5-.8-3.5-.8-6.2s.3-4.7 1-6.3c1.5-4.6 5.8-7 11.3-7 4.2 0 7.5 1.4 9.7 4 .2 0 .2.4 0 .6l-3.7 3c-.3 0-.6 0-.8-.2-1.4-1.4-2.8-2.2-5-2.2-2.6 0-4.5 1-5.3 3.3-.6 1.3-.7 2.8-.7 4.7 0 2 0 3.5.6 4.8.7 2.2 2.6 3.3 5 3.3s3.8-.8 5.2-2.2c.2-.2.5-.2.8 0l3.6 3c.3 0 .2.4 0 .6-2 2.4-5.4 4-9.5 4-5.5 0-9.7-2.5-11.3-7zm43.5 6.6c-.3 0-.6 0-.8-.4l-7-10.7-3.7 4v6.6c0 .3-.2.5-.6.5h-5.4c-.3 0-.6 0-.6-.4v-35c0-.4.2-.6.6-.6h5.3c.2 0 .5.2.5.5v20.8L420 39c.3-.4.6-.5 1-.5h6c.3 0 .5.3.2.5l-8.8 9.3 10 15.2c.3.2.2.5-.2.5h-6z" fill="#382f27"/></g></switch></svg>
