<svg xmlns="http://www.w3.org/2000/svg" viewBox="0 -4 16.26 23.94"><path d="M.533 8.902L2.74 8.62a78.644 78.644 0 0 1 1.48 3.358 58.76 58.76 0 0 1 1.28 3.26L9.66.575 10.84 0 6.22 15.96H4.88A86.666 86.666 0 0 0 2 9.12l-1.72.16z" fill="#282a2d"/><path d="M2.834 2.283q.298-.082.801-.185.504-.103 1.233-.103.606 0 1.007.175.411.174.647.503.247.319.35.77.102.453.102.998V7.41h-.667V4.656q0-.565-.083-.955-.071-.39-.256-.637-.175-.247-.473-.35-.288-.113-.73-.113-.472 0-.822.052-.339.051-.441.092V7.41h-.668V2.283z" fill="#282a2d"/></svg>