<?xml version="1.0" standalone="no"?>
<!DOCTYPE svg PUBLIC "-//W3C//DTD SVG 20010904//EN"
 "http://www.w3.org/TR/2001/REC-SVG-20010904/DTD/svg10.dtd">
<svg version="1.0" xmlns="http://www.w3.org/2000/svg"
 width="700.000000pt" height="700.000000pt" viewBox="0 0 700.000000 700.000000"
 preserveAspectRatio="xMidYMid meet">
<g transform="translate(0.000000,700.000000) scale(0.100000,-0.100000)"
fill="#000000" stroke="none">
<path d="M3285 6994 c-203 -20 -276 -28 -375 -45 -610 -105 -1195 -376 -1665
-772 -95 -81 -310 -294 -394 -392 -468 -542 -742 -1176 -833 -1925 -17 -137
-17 -583 0 -720 69 -569 227 -1028 514 -1491 145 -236 311 -440 525 -649 204
-200 371 -332 592 -468 463 -287 922 -445 1491 -514 137 -17 583 -17 720 0
569 69 1028 227 1491 514 360 222 692 528 958 882 323 430 549 960 640 1501
38 223 46 327 46 585 0 258 -8 362 -46 585 -105 627 -382 1216 -800 1700 -84
98 -299 311 -394 392 -518 437 -1148 710 -1845 798 -117 15 -536 28 -625 19z
m1695 -1172 c61 -32 116 -87 148 -147 l27 -50 3 -2112 2 -2112 -21 -56 c-27
-73 -101 -147 -176 -175 -54 -20 -65 -20 -1476 -18 l-1422 3 -45 23 c-61 32
-116 87 -148 147 l-27 50 -3 2112 -2 2112 21 56 c26 71 101 147 173 174 50 20
76 20 1476 18 l1425 -2 45 -23z"/>
<path d="M2530 5371 c-78 -24 -158 -90 -193 -158 -29 -56 -37 -136 -37 -363 0
-228 8 -307 37 -364 27 -53 92 -113 152 -140 l59 -26 964 2 963 3 53 29 c65
36 107 82 141 156 l26 55 0 285 0 285 -33 67 c-38 78 -94 129 -172 159 -48 18
-86 19 -993 18 -518 0 -953 -4 -967 -8z"/>
<path d="M2575 3889 c-173 -22 -293 -189 -264 -368 25 -156 152 -263 314 -263
127 0 228 62 285 174 26 53 30 72 30 143 0 71 -4 90 -30 143 -64 126 -188 190
-335 171z"/>
<path d="M3387 3876 c-252 -90 -282 -452 -48 -579 238 -130 521 70 471 333
-21 109 -78 185 -175 231 -50 24 -72 29 -135 29 -41 -1 -92 -7 -113 -14z"/>
<path d="M4244 3869 c-61 -23 -134 -92 -164 -155 -27 -56 -37 -156 -21 -221
25 -100 119 -198 215 -224 59 -16 148 -13 206 6 68 23 150 99 181 167 32 74
32 192 0 266 -30 66 -113 144 -177 166 -65 22 -176 20 -240 -5z"/>
<path d="M2562 3050 c-241 -50 -335 -350 -166 -530 69 -74 121 -95 234 -95 83
0 101 4 145 27 113 59 169 153 170 283 0 95 -28 168 -90 230 -71 70 -193 106
-293 85z"/>
<path d="M3433 3050 c-97 -20 -178 -86 -222 -179 -34 -74 -36 -192 -4 -262 28
-63 87 -125 147 -157 45 -23 63 -27 146 -27 81 0 102 4 143 25 183 93 233 335
102 495 -66 81 -204 127 -312 105z"/>
<path d="M4303 3050 c-60 -12 -112 -42 -159 -92 -52 -54 -70 -88 -83 -164 -20
-109 11 -206 89 -285 64 -64 140 -92 240 -87 92 4 151 30 215 95 64 65 88 135
83 238 -9 158 -103 266 -258 295 -59 11 -68 11 -127 0z"/>
<path d="M2523 2201 c-266 -92 -288 -464 -34 -588 74 -37 200 -40 272 -7 101
47 172 145 185 255 27 235 -200 417 -423 340z"/>
<path d="M3410 2207 c-155 -44 -254 -209 -221 -369 32 -163 173 -269 338 -255
262 21 387 332 212 530 -76 87 -214 127 -329 94z"/>
<path d="M4285 2208 c-90 -24 -171 -98 -211 -193 -27 -64 -24 -177 8 -247 91
-199 349 -251 508 -102 74 69 95 121 95 234 0 80 -4 102 -23 140 -34 64 -97
125 -156 151 -59 25 -162 33 -221 17z"/>
</g>
</svg>
